<svg width="10" height="8" viewBox="0 0 10 8" fill="none" xmlns="http://www.w3.org/2000/svg">
<path d="M0.701393 2.1066C0.741559 1.48823 1.23872 1.00361 1.85763 0.972952C2.75386 0.928551 4.03482 0.875 4.99999 0.875C5.96515 0.875 7.24611 0.928551 8.14234 0.972952C8.76125 1.00361 9.25841 1.48823 9.29858 2.1066C9.33706 2.69904 9.37499 3.42802 9.37499 4C9.37499 4.57198 9.33706 5.30096 9.29858 5.8934C9.25841 6.51177 8.76125 6.99639 8.14234 7.02705C7.24611 7.07145 5.96515 7.125 4.99999 7.125C4.03482 7.125 2.75386 7.07145 1.85763 7.02705C1.23872 6.99639 0.741559 6.51177 0.701393 5.8934C0.662911 5.30096 0.624985 4.57198 0.624985 4C0.624985 3.42802 0.662911 2.69904 0.701393 2.1066Z" fill="#FC0D1B"/>
</svg>
